<svg width="60" height="60" viewBox="0 0 60 60" fill="none" xmlns="http://www.w3.org/2000/svg">
<rect width="60" height="60" rx="6" fill="#FDEEEA"/>
<path d="M30 31.7875C30.5122 31.7875 31.0193 31.6866 31.4925 31.4906C31.9656 31.2946 32.3956 31.0074 32.7577 30.6452C33.1199 30.2831 33.4071 29.8531 33.6031 29.38C33.7991 28.9068 33.9 28.3996 33.9 27.8875C33.9 27.3753 33.7991 26.8682 33.6031 26.395C33.4071 25.9219 33.1199 25.4919 32.7577 25.1298C32.3956 24.7676 31.9656 24.4804 31.4925 24.2844C31.0193 24.0884 30.5122 23.9875 30 23.9875C28.9657 23.9875 27.9737 24.3984 27.2423 25.1298C26.5109 25.8612 26.1 26.8531 26.1 27.8875C26.1 28.9218 26.5109 29.9138 27.2423 30.6452C27.9737 31.3766 28.9657 31.7875 30 31.7875Z" stroke="#F0572C" stroke-width="2"/>
<path d="M19.525 25.6125C21.9875 14.7875 38.025 14.8 40.475 25.625C41.9125 31.975 37.9625 37.35 34.5 40.675C33.2901 41.8419 31.6747 42.494 29.9938 42.494C28.3128 42.494 26.6974 41.8419 25.4875 40.675C22.0375 37.35 18.0875 31.9625 19.525 25.6125Z" stroke="#F0572C" stroke-width="2"/>
</svg>
