<svg width="60" height="60" viewBox="0 0 60 60" fill="none" xmlns="http://www.w3.org/2000/svg">
<rect width="60" height="60" rx="6" fill="#FDEEEA"/>
<path d="M26.25 42.5H33.75C40 42.5 42.5 40 42.5 33.75V26.25C42.5 20 40 17.5 33.75 17.5H26.25C20 17.5 17.5 20 17.5 26.25V33.75C17.5 40 20 42.5 26.25 42.5Z" stroke="#F0572C" stroke-width="2" stroke-linecap="round" stroke-linejoin="round"/>
<path d="M34.375 27.1875C34.8723 27.1875 35.3492 26.99 35.7008 26.6383C36.0525 26.2867 36.25 25.8098 36.25 25.3125C36.25 24.8152 36.0525 24.3383 35.7008 23.9867C35.3492 23.635 34.8723 23.4375 34.375 23.4375C33.8777 23.4375 33.4008 23.635 33.0492 23.9867C32.6975 24.3383 32.5 24.8152 32.5 25.3125C32.5 25.8098 32.6975 26.2867 33.0492 26.6383C33.4008 26.99 33.8777 27.1875 34.375 27.1875ZM25.625 27.1875C26.1223 27.1875 26.5992 26.99 26.9508 26.6383C27.3025 26.2867 27.5 25.8098 27.5 25.3125C27.5 24.8152 27.3025 24.3383 26.9508 23.9867C26.5992 23.635 26.1223 23.4375 25.625 23.4375C25.1277 23.4375 24.6508 23.635 24.2992 23.9867C23.9475 24.3383 23.75 24.8152 23.75 25.3125C23.75 25.8098 23.9475 26.2867 24.2992 26.6383C24.6508 26.99 25.1277 27.1875 25.625 27.1875ZM25.5 31.625H34.5C35.125 31.625 35.625 32.125 35.625 32.75C35.625 35.8625 33.1125 38.375 30 38.375C26.8875 38.375 24.375 35.8625 24.375 32.75C24.375 32.125 24.875 31.625 25.5 31.625Z" stroke="#F0572C" stroke-width="2" stroke-miterlimit="10" stroke-linecap="round" stroke-linejoin="round"/>
</svg>
