<svg width="60" height="60" viewBox="0 0 60 60" fill="none" xmlns="http://www.w3.org/2000/svg">
<rect width="60" height="60" rx="6" fill="#FDEEEA"/>
<path d="M39.375 30.625C39.375 29.7962 39.7042 29.0013 40.2903 28.4153C40.8763 27.8292 41.6712 27.5 42.5 27.5V26.25C42.5 21.25 41.25 20 36.25 20H23.75C18.75 20 17.5 21.25 17.5 26.25V26.875C18.3288 26.875 19.1237 27.2042 19.7097 27.7903C20.2958 28.3763 20.625 29.1712 20.625 30C20.625 30.8288 20.2958 31.6237 19.7097 32.2097C19.1237 32.7958 18.3288 33.125 17.5 33.125V33.75C17.5 38.75 18.75 40 23.75 40H36.25C41.25 40 42.5 38.75 42.5 33.75C41.6712 33.75 40.8763 33.4208 40.2903 32.8347C39.7042 32.2487 39.375 31.4538 39.375 30.625Z" stroke="#F0572C" stroke-width="2" stroke-linecap="round" stroke-linejoin="round"/>
<path d="M27.5 20V40" stroke="#F0572C" stroke-width="2" stroke-linecap="round" stroke-linejoin="round" stroke-dasharray="5 5"/>
</svg>
