<svg width="40" height="40" viewBox="0 0 40 40" fill="none" xmlns="http://www.w3.org/2000/svg">
<rect width="40" height="40" rx="6" fill="#FDEEEA"/>
<path d="M14.3991 27V25.4091L19.321 20.3097C19.8466 19.7557 20.2798 19.2704 20.6207 18.8537C20.9664 18.4323 21.2244 18.0322 21.3949 17.6534C21.5653 17.2746 21.6506 16.8722 21.6506 16.446C21.6506 15.9631 21.5369 15.5464 21.3097 15.196C21.0824 14.8409 20.7723 14.5687 20.3793 14.3793C19.9863 14.1851 19.5436 14.0881 19.0511 14.0881C18.5303 14.0881 18.0758 14.1946 17.6875 14.4077C17.2992 14.6207 17.0009 14.9214 16.7926 15.3097C16.5843 15.6979 16.4801 16.1525 16.4801 16.6733H14.3849C14.3849 15.7879 14.5885 15.0137 14.9957 14.3509C15.4029 13.688 15.9616 13.1742 16.6719 12.8097C17.3821 12.4403 18.1894 12.2557 19.0938 12.2557C20.0076 12.2557 20.8125 12.438 21.5085 12.8026C22.2093 13.1624 22.7562 13.6548 23.1491 14.2798C23.5421 14.9001 23.7386 15.6009 23.7386 16.3821C23.7386 16.9219 23.6368 17.4498 23.4332 17.9659C23.2344 18.482 22.8864 19.0573 22.3892 19.6918C21.892 20.3215 21.2008 21.0862 20.3153 21.9858L17.4247 25.0114V25.1179H23.973V27H14.3991Z" fill="#F0572C"/>
</svg>
