<svg width="40" height="40" viewBox="0 0 40 40" fill="none" xmlns="http://www.w3.org/2000/svg">
<rect width="40" height="40" rx="6" fill="#FDEEEA"/>
<path d="M19.4631 28.1989C18.4877 28.1989 17.6165 28.0308 16.8494 27.6946C16.0871 27.3584 15.4834 26.892 15.0384 26.2955C14.598 25.6941 14.3613 24.9981 14.3281 24.2074H16.5582C16.5866 24.6383 16.7311 25.0123 16.9915 25.3295C17.2566 25.642 17.6023 25.8835 18.0284 26.054C18.4545 26.2244 18.928 26.3097 19.4489 26.3097C20.0218 26.3097 20.5284 26.2102 20.9688 26.0114C21.4138 25.8125 21.7618 25.5355 22.0128 25.1804C22.2637 24.8205 22.3892 24.4062 22.3892 23.9375C22.3892 23.4498 22.2637 23.0213 22.0128 22.652C21.7666 22.2779 21.4044 21.9844 20.9261 21.7713C20.4527 21.5582 19.8797 21.4517 19.2074 21.4517H17.9787V19.6619H19.2074C19.7472 19.6619 20.2206 19.5649 20.6278 19.3707C21.0398 19.1766 21.3617 18.9067 21.5938 18.5611C21.8258 18.2107 21.9418 17.8011 21.9418 17.3324C21.9418 16.8826 21.84 16.492 21.6364 16.1605C21.4375 15.8243 21.1534 15.5616 20.7841 15.3722C20.4195 15.1828 19.9886 15.0881 19.4915 15.0881C19.018 15.0881 18.5753 15.1757 18.1634 15.3509C17.7562 15.5213 17.4247 15.7675 17.169 16.0895C16.9134 16.4067 16.776 16.7879 16.7571 17.233H14.6335C14.6572 16.447 14.8892 15.7557 15.3295 15.1591C15.7746 14.5625 16.3617 14.0961 17.0909 13.7599C17.8201 13.4238 18.6297 13.2557 19.5199 13.2557C20.4527 13.2557 21.2576 13.438 21.9347 13.8026C22.6165 14.1624 23.142 14.643 23.5114 15.2443C23.8854 15.8456 24.0701 16.5038 24.0653 17.2188C24.0701 18.0331 23.8428 18.7244 23.3835 19.2926C22.929 19.8608 22.3229 20.242 21.5653 20.4361V20.5497C22.5313 20.6965 23.2794 21.08 23.8097 21.7003C24.3447 22.3205 24.6098 23.09 24.6051 24.0085C24.6098 24.8087 24.3873 25.526 23.9375 26.1605C23.4924 26.795 22.884 27.2945 22.1122 27.6591C21.3404 28.0189 20.4574 28.1989 19.4631 28.1989Z" fill="#F0572C"/>
</svg>
