<svg width="40" height="40" viewBox="0 0 40 40" fill="none" xmlns="http://www.w3.org/2000/svg">
<rect width="40" height="40" rx="6" fill="#FDEEEA"/>
<path d="M16 10V13M24 10V13M11.5 17.09H28.5M29 16.5V25C29 28 27.5 30 24 30H16C12.5 30 11 28 11 25V16.5C11 13.5 12.5 11.5 16 11.5H24C27.5 11.5 29 13.5 29 16.5Z" stroke="#F0572C" stroke-width="1.5" stroke-miterlimit="10" stroke-linecap="round" stroke-linejoin="round"/>
<path d="M23.695 21.7H23.704M23.695 24.7H23.704M19.995 21.7H20.005M19.995 24.7H20.005M16.294 21.7H16.304M16.294 24.7H16.304" stroke="#F0572C" stroke-width="2" stroke-linecap="round" stroke-linejoin="round"/>
</svg>
