<svg width="40" height="40" viewBox="0 0 40 40" fill="none" xmlns="http://www.w3.org/2000/svg">
<rect width="40" height="40" rx="6" fill="#FDEEEA"/>
<path d="M24.97 22.44C26.34 22.67 27.85 22.43 28.91 21.72C30.32 20.78 30.32 19.24 28.91 18.3C27.84 17.59 26.31 17.35 24.94 17.59M15 22.44C13.63 22.67 12.12 22.43 11.06 21.72C9.65 20.78 9.65 19.24 11.06 18.3C12.13 17.59 13.66 17.35 15.03 17.59M26 15.16C25.9371 15.15 25.8729 15.15 25.81 15.16C25.1426 15.1359 24.5108 14.8532 24.048 14.3718C23.5852 13.8903 23.3277 13.2478 23.33 12.58C23.33 11.15 24.48 10 25.91 10C26.5943 10 27.2505 10.2718 27.7343 10.7557C28.2182 11.2395 28.49 11.8957 28.49 12.58C28.4882 13.2483 28.228 13.89 27.7639 14.3708C27.2998 14.8517 26.6678 15.1344 26 15.16ZM13.97 15.16C14.03 15.15 14.1 15.15 14.16 15.16C14.8274 15.1359 15.4592 14.8532 15.922 14.3718C16.3848 13.8903 16.6423 13.2478 16.64 12.58C16.64 11.15 15.49 10 14.06 10C13.3757 10 12.7195 10.2718 12.2357 10.7557C11.7518 11.2395 11.48 11.8957 11.48 12.58C11.49 13.98 12.59 15.11 13.97 15.16ZM20 22.63C19.9371 22.62 19.8729 22.62 19.81 22.63C19.1426 22.6059 18.5108 22.3232 18.048 21.8418C17.5852 21.3603 17.3277 20.7178 17.33 20.05C17.33 18.62 18.48 17.47 19.91 17.47C20.5943 17.47 21.2505 17.7418 21.7343 18.2257C22.2182 18.7095 22.49 19.3657 22.49 20.05C22.48 21.45 21.38 22.59 20 22.63ZM17.09 25.78C15.68 26.72 15.68 28.26 17.09 29.2C18.69 30.27 21.31 30.27 22.91 29.2C24.32 28.26 24.32 26.72 22.91 25.78C21.32 24.72 18.69 24.72 17.09 25.78Z" stroke="#F0572C" stroke-width="1.5" stroke-linecap="round" stroke-linejoin="round"/>
</svg>
