<svg width="40" height="40" viewBox="0 0 40 40" fill="none" xmlns="http://www.w3.org/2000/svg">
<rect width="40" height="40" rx="6" fill="#FDEEEA"/>
<path d="M20 21.4299C20.4097 21.4299 20.8154 21.3492 21.194 21.1924C21.5725 21.0357 21.9165 20.8058 22.2062 20.5161C22.4959 20.2264 22.7257 19.8824 22.8825 19.5039C23.0393 19.1254 23.12 18.7197 23.12 18.3099C23.12 17.9002 23.0393 17.4945 22.8825 17.116C22.7257 16.7374 22.4959 16.3935 22.2062 16.1038C21.9165 15.814 21.5725 15.5842 21.194 15.4274C20.8154 15.2706 20.4097 15.1899 20 15.1899C19.1725 15.1899 18.3789 15.5187 17.7938 16.1038C17.2087 16.6889 16.88 17.4825 16.88 18.3099C16.88 19.1374 17.2087 19.931 17.7938 20.5161C18.3789 21.1012 19.1725 21.4299 20 21.4299Z" stroke="#F0572C" stroke-width="1.5"/>
<path d="M11.62 16.49C13.59 7.83 26.42 7.84 28.38 16.5C29.53 21.58 26.37 25.88 23.6 28.54C22.6321 29.4735 21.3398 29.9952 19.995 29.9952C18.6503 29.9952 17.3579 29.4735 16.39 28.54C13.63 25.88 10.47 21.57 11.62 16.49Z" stroke="#F0572C" stroke-width="1.5"/>
</svg>
